<svg width="23" height="20" viewBox="0 0 23 20" fill="none" xmlns="http://www.w3.org/2000/svg">
<g clip-path="url(#clip0_533_2348)">
<path d="M5.85054 5.62012L3.85792 5.7468C3.30345 5.78207 2.80963 6.02121 2.50299 6.4029L0.204943 9.26314C-0.0276155 9.5526 -0.0645859 9.91484 0.105981 10.2322C0.276593 10.5495 0.627205 10.7706 1.04385 10.8238L2.86834 11.0563C3.29514 9.19239 4.31683 7.33308 5.85054 5.62012Z" fill="#FFD050"/>
<path d="M10.1836 17.0752L10.4662 18.5767C10.5307 18.9196 10.7995 19.2081 11.185 19.3484C11.3454 19.4069 11.5152 19.4357 11.6842 19.4357C11.9215 19.4357 12.1572 19.3788 12.3626 19.267L15.8384 17.3759C16.3022 17.1235 16.5928 16.7171 16.6355 16.2609L16.7895 14.6211C14.7079 15.8833 12.4486 16.7241 10.1836 17.0752Z" fill="#FFD050"/>
<path d="M9.49658 16.0343C9.55992 16.0343 9.62362 16.03 9.68718 16.0213C10.6361 15.8907 11.5507 15.6708 12.4232 15.3829L4.92442 9.21191C4.57457 9.92986 4.30729 10.6825 4.14863 11.4635C4.0861 11.7713 4.21156 12.0849 4.4797 12.3056L8.66387 15.7489C8.8865 15.932 9.18698 16.0343 9.49658 16.0343Z" fill="#FFD050"/>
<path d="M21.1661 8.90002C23.0011 5.98055 23.069 2.8954 22.9731 1.44849C22.9403 0.952723 22.46 0.557467 21.8575 0.530444C21.5712 0.51758 21.2319 0.508301 20.8495 0.508301C18.8835 0.508301 15.7726 0.753358 12.8027 2.01753C10.4424 3.0222 7.34745 5.23436 5.52148 8.14155C5.54305 8.15542 5.56411 8.17013 5.58397 8.18647L13.6698 14.8406C13.6897 14.8569 13.7075 14.8742 13.7244 14.892C17.2571 13.3893 19.9453 10.8424 21.1661 8.90002ZM13.3731 4.50965C14.6866 3.42869 16.8241 3.42858 18.1377 4.50965C18.7741 5.0333 19.1245 5.72958 19.1245 6.47015C19.1245 7.21072 18.7741 7.907 18.1377 8.43064C17.481 8.97107 16.618 9.24134 15.7554 9.24141C14.8925 9.24145 14.03 8.97122 13.3731 8.43064C12.7367 7.907 12.3863 7.21072 12.3863 6.47015C12.3863 5.72958 12.7367 5.0333 13.3731 4.50965Z" fill="#232536"/>
<path d="M14.3264 7.64666C15.1146 8.29526 16.3971 8.2953 17.1853 7.64666C17.5671 7.33244 17.7773 6.9147 17.7773 6.47035C17.7773 6.026 17.5671 5.60826 17.1853 5.29408C16.7912 4.96976 16.2735 4.80762 15.7559 4.80762C15.2382 4.80762 14.7205 4.96976 14.3265 5.29408C13.9447 5.60826 13.7344 6.026 13.7344 6.47035C13.7344 6.9147 13.9447 7.33247 14.3264 7.64666Z" fill="#232536"/>
<path d="M0.687523 16.106C0.859978 16.106 1.03243 16.0519 1.16396 15.9436L3.36392 14.1331C3.62708 13.9166 3.62708 13.5655 3.36392 13.3489C3.10082 13.1324 2.67415 13.1324 2.411 13.3489L0.211036 15.1594C-0.0521162 15.3759 -0.0521162 15.727 0.211036 15.9436C0.342612 16.0518 0.515068 16.106 0.687523 16.106Z" fill="#FFD050"/>
<path d="M5.37991 15.0086C5.1168 14.7921 4.69014 14.7921 4.42698 15.0086L0.197364 18.4893C-0.0657881 18.7059 -0.0657881 19.0569 0.197364 19.2735C0.32894 19.3818 0.501396 19.4359 0.673851 19.4359C0.846306 19.4359 1.01876 19.3818 1.15029 19.2735L5.37987 15.7928C5.64306 15.5762 5.64306 15.2252 5.37991 15.0086Z" fill="#FFD050"/>
<path d="M6.4422 16.6673L4.24229 18.4777C3.97913 18.6943 3.97913 19.0454 4.24229 19.2619C4.37386 19.3702 4.54632 19.4244 4.71873 19.4244C4.89114 19.4244 5.06364 19.3702 5.19517 19.2619L7.39513 17.4515C7.65828 17.2349 7.65828 16.8839 7.39513 16.6673C7.13202 16.4507 6.70535 16.4507 6.4422 16.6673Z" fill="#FFD050"/>
</g>
<defs>
<clipPath id="clip0_533_2348">
<rect width="23" height="18.9275" fill="white" transform="translate(0 0.508301)"/>
</clipPath>
</defs>
</svg>
